<?xml version="1.0" standalone="no"?>
<!DOCTYPE svg PUBLIC "-//W3C//DTD SVG 20010904//EN"
 "http://www.w3.org/TR/2001/REC-SVG-20010904/DTD/svg10.dtd">
<svg version="1.0" xmlns="http://www.w3.org/2000/svg"
 width="427.000000pt" height="427.000000pt" viewBox="0 0 427.000000 427.000000"
 preserveAspectRatio="xMidYMid meet">
<metadata>
Created by potrace 1.11, written by Peter Selinger 2001-2013
</metadata>
<g transform="translate(0.000000,427.000000) scale(0.100000,-0.100000)"
fill="#000000" stroke="none">
<path d="M2507 4102 c-9 -10 -17 -32 -19 -50 -2 -31 -18 -46 -18 -17 0 8 -6
15 -14 15 -8 0 -16 6 -19 13 -3 9 -19 4 -58 -15 -42 -22 -61 -26 -84 -20 -50
13 -110 7 -113 -12 -4 -18 -18 -21 -27 -6 -4 6 -11 8 -16 4 -6 -4 -6 -11 2
-20 22 -27 2 -25 -24 2 l-27 27 0 -24 c0 -18 -3 -20 -12 -11 -15 15 -39 -4
-31 -25 4 -11 2 -14 -5 -9 -7 4 -12 2 -12 -3 0 -6 -4 -11 -10 -11 -5 0 -7 13
-3 30 6 33 -10 41 -26 13 -9 -15 -12 -16 -20 -3 -7 10 -11 0 -13 -35 -3 -50
-3 -50 -17 -22 -16 31 -26 33 -47 12 -19 -19 -29 -19 -48 1 -10 10 -16 11 -16
3 0 -9 -4 -8 -15 1 -13 11 -15 8 -15 -16 0 -27 -1 -27 -15 -8 -8 10 -15 17
-15 14 0 -3 -7 -23 -16 -45 -14 -38 -15 -39 -10 -7 4 24 2 32 -7 29 -7 -2 -12
-21 -11 -46 1 -32 -3 -41 -13 -37 -8 4 -11 1 -8 -5 4 -6 -1 -19 -10 -29 -9
-10 -14 -23 -11 -29 10 -16 -29 -32 -42 -19 -9 9 -12 6 -12 -12 0 -13 -3 -20
-7 -17 -9 9 -53 -33 -53 -50 0 -8 -4 -11 -10 -8 -5 3 -39 -13 -74 -36 -58 -39
-63 -46 -59 -72 3 -18 -2 -36 -13 -48 -10 -11 -12 -19 -5 -19 8 0 6 -10 -5
-32 -12 -22 -13 -33 -5 -36 6 -2 9 -8 5 -13 -3 -5 2 -9 10 -9 8 0 19 -8 24
-17 9 -15 12 -15 33 -1 13 9 39 30 57 47 18 17 37 31 42 31 4 0 10 7 14 15 3
8 12 15 21 15 8 0 15 7 15 15 0 18 5 18 31 5 15 -8 19 -7 19 5 0 8 3 14 8 13
4 0 15 2 24 6 24 11 116 -11 150 -35 26 -18 58 -25 58 -13 0 11 -29 34 -44 34
-9 0 -16 5 -16 10 0 6 10 10 21 10 18 0 19 3 9 15 -14 17 -4 39 13 28 6 -4 23
-6 38 -5 17 1 29 -4 33 -14 3 -8 10 -12 16 -9 5 3 15 -6 20 -20 14 -36 13 -38
-8 -33 -22 6 -48 -27 -31 -37 5 -4 16 -2 23 4 9 7 18 6 33 -4 15 -10 23 -11
25 -4 2 6 16 -8 32 -31 15 -23 24 -40 19 -37 -4 3 -14 -2 -22 -11 -13 -13 -12
-14 11 -9 17 5 28 3 30 -5 5 -14 58 -19 58 -5 0 5 7 6 16 3 12 -4 15 -2 10 9
-8 21 4 19 47 -11 38 -25 69 -25 34 0 -21 16 -22 26 -3 26 8 0 23 -11 34 -25
12 -15 26 -23 35 -19 8 3 18 0 22 -6 4 -6 16 -8 27 -4 14 4 18 2 14 -5 -5 -8
0 -8 20 -1 15 6 29 8 32 5 3 -3 0 -5 -6 -5 -7 0 -12 -7 -12 -15 0 -20 17 -19
28 1 6 10 16 13 34 9 21 -5 24 -11 20 -33 -4 -22 -2 -25 9 -14 19 18 47 15 59
-8 15 -28 29 -25 41 10 6 17 18 30 27 30 14 0 15 -2 3 -9 -11 -7 -7 -10 15
-13 18 -2 28 -8 26 -16 -2 -10 8 -13 40 -10 37 2 43 0 40 -15 -2 -9 4 -24 13
-33 17 -18 19 -30 5 -39 -5 -3 -1 -21 11 -42 11 -19 18 -38 14 -41 -3 -3 -5
-2 -5 1 0 4 -10 -3 -22 -15 -15 -15 -21 -32 -20 -55 3 -32 -12 -46 -21 -20 -2
6 -9 -4 -16 -25 -7 -20 -18 -39 -26 -42 -8 -3 -12 -12 -9 -19 3 -8 -3 -23 -13
-32 -13 -13 -14 -20 -5 -23 6 -2 12 -13 12 -24 0 -16 -3 -18 -13 -10 -7 6 -23
9 -35 5 -22 -5 -29 -18 -14 -25 11 -5 41 -75 35 -82 -3 -3 -18 -3 -32 1 -23 6
-25 5 -12 -11 8 -9 11 -19 7 -23 -3 -3 1 -17 9 -30 14 -20 14 -23 0 -23 -12 0
-13 -4 -3 -25 6 -14 18 -25 27 -25 14 0 14 -2 1 -10 -19 -12 -3 -30 29 -33 25
-2 29 -17 4 -17 -15 -1 -14 -4 6 -21 22 -18 26 -18 33 -4 5 8 6 21 2 28 -5 8
-4 9 3 2 6 -5 14 -20 17 -31 5 -16 2 -23 -15 -27 -17 -5 -20 -11 -14 -35 6
-28 5 -30 -25 -27 -18 1 -37 8 -42 16 -8 11 -9 10 -4 -4 3 -10 6 -22 6 -27 0
-5 12 -8 28 -8 15 1 36 -2 47 -5 24 -8 45 29 45 77 1 28 2 29 14 14 7 -10 21
-18 30 -18 10 0 15 -4 11 -9 -3 -5 0 -13 6 -16 5 -4 8 -13 5 -21 -3 -8 0 -11
10 -7 7 3 14 8 14 12 0 4 15 6 34 6 36 -2 66 -24 66 -49 0 -13 6 -15 28 -10
26 6 26 6 8 -9 -19 -14 -19 -15 7 -47 27 -31 36 -57 17 -45 -13 8 -13 5 4 -42
13 -38 13 -42 -7 -62 -20 -20 -20 -21 -3 -34 25 -18 14 -77 -15 -77 -10 0 -19
-4 -19 -9 0 -5 9 -7 20 -4 21 5 28 -11 10 -22 -5 -3 -10 -11 -10 -17 0 -7 6
-6 15 2 12 10 15 10 15 -2 0 -25 -21 -37 -56 -31 -23 4 -34 2 -34 -6 0 -7 5
-9 10 -6 13 8 57 -33 60 -55 5 -30 0 -38 -20 -33 -15 4 -20 0 -20 -16 0 -12
-7 -24 -15 -27 -8 -4 -15 -10 -15 -15 0 -4 8 -5 18 -2 21 8 72 58 72 71 0 11
30 25 38 17 3 -3 0 -5 -6 -5 -15 0 -16 -32 -2 -46 7 -7 4 -10 -12 -10 -16 1
-22 -4 -20 -16 2 -11 -7 -18 -27 -23 -16 -3 -35 -13 -42 -21 -10 -12 -14 -12
-21 -2 -4 8 -5 -1 -2 -19 5 -26 3 -33 -9 -33 -8 0 -15 6 -14 13 2 50 -5 77
-17 77 -11 0 -13 -9 -9 -37 6 -35 5 -37 -10 -24 -10 7 -18 23 -18 35 -1 18 -2
18 -6 3 -4 -14 -11 -17 -34 -12 -18 4 -29 3 -29 -4 0 -6 5 -11 10 -11 19 0 9
-17 -37 -65 -27 -27 -47 -52 -45 -57 1 -4 -2 -8 -8 -8 -5 0 -10 5 -10 10 0 6
-7 10 -15 10 -9 0 -12 -6 -8 -15 3 -9 -2 -22 -13 -30 -18 -13 -18 -14 -1 -15
9 0 17 -5 17 -11 0 -6 -7 -9 -15 -6 -8 4 -17 2 -20 -3 -4 -6 -18 -7 -32 -4
-16 4 -24 3 -20 -3 7 -11 -33 -53 -54 -57 -33 -7 -50 -19 -45 -33 4 -11 1 -13
-14 -8 -14 4 -20 2 -20 -8 0 -8 -7 -20 -15 -27 -8 -7 -13 -16 -10 -20 7 -11
-22 -21 -40 -14 -8 4 -15 1 -15 -4 0 -6 8 -13 18 -15 16 -4 16 -5 -1 -6 -17
-1 -29 -8 -67 -43 -10 -9 -21 -13 -25 -10 -3 4 -3 -1 0 -11 5 -12 -2 -21 -27
-33 -38 -18 -48 -53 -24 -89 13 -19 13 -26 0 -50 -17 -32 -17 -35 -4 -35 6 0
10 6 10 14 0 7 9 16 20 19 12 3 20 0 20 -8 0 -8 9 -11 25 -7 14 2 31 -1 39 -7
11 -9 15 -9 19 1 3 7 5 4 5 -7 0 -11 4 -31 8 -44 5 -17 4 -22 -4 -17 -8 5 -12
0 -12 -12 0 -11 7 -23 15 -26 12 -4 14 -10 5 -25 -14 -28 -13 -44 4 -38 10 4
17 -4 22 -26 4 -18 7 -36 5 -42 -2 -5 -4 -21 -5 -35 -3 -24 -51 -54 -70 -43
-4 3 -12 -1 -17 -8 -7 -11 -9 -11 -9 -1 0 9 -5 10 -17 3 -10 -5 -18 -18 -18
-28 0 -14 -8 -18 -41 -18 -28 0 -40 -4 -37 -12 3 -7 -3 -10 -16 -6 -12 3 -21
1 -21 -6 0 -6 6 -11 13 -11 8 0 7 -4 -3 -11 -12 -9 -11 -10 7 -6 13 3 26 1 29
-4 3 -5 1 -9 -5 -9 -10 0 -73 -39 -99 -61 -7 -6 -10 -19 -7 -30 7 -22 -5 -25
-24 -6 -11 10 -12 7 -6 -13 7 -21 6 -23 -6 -13 -18 14 -79 14 -97 0 -11 -8
-12 -4 -7 19 5 27 5 28 -6 6 -7 -12 -21 -22 -31 -22 -14 0 -18 -5 -14 -17 3
-10 2 -24 -3 -32 -8 -12 -12 -11 -27 3 -11 11 -27 16 -45 14 -16 -3 -30 0 -32
6 -3 8 -8 7 -18 -1 -12 -10 -15 -7 -17 14 -3 34 -11 42 -18 18 -7 -27 -56 -63
-62 -46 -3 9 -7 8 -16 -4 -12 -16 -51 -11 -41 5 3 5 -2 15 -10 23 -21 21 -19
33 8 42 16 5 18 8 7 11 -9 3 -22 15 -29 27 -13 20 -13 21 2 9 20 -17 31 0 23
33 -6 24 5 28 32 12 19 -13 45 20 38 48 -3 13 -1 27 4 30 6 4 10 16 8 28 -2
12 2 22 9 22 6 0 15 3 19 7 12 12 24 9 24 -6 0 -7 9 -16 21 -19 14 -4 23 1 29
16 8 21 9 21 9 -5 1 -17 -5 -28 -16 -30 -15 -3 -15 -4 1 -21 11 -11 13 -17 5
-17 -7 0 -4 -6 7 -15 17 -13 17 -14 2 -15 -10 0 -18 -6 -18 -14 0 -20 57 -31
76 -15 14 11 18 10 29 -4 7 -9 16 -17 21 -17 5 0 15 -9 22 -20 7 -11 21 -20
32 -20 11 0 20 -7 20 -15 0 -8 4 -15 10 -15 16 0 33 42 33 82 0 21 3 38 6 38
4 0 12 26 19 59 7 33 21 66 32 76 24 22 26 35 4 35 -8 0 -13 3 -10 8 5 8 -30
187 -40 204 -3 5 -12 7 -20 4 -20 -8 -18 29 3 49 13 14 14 18 3 25 -7 4 -14
17 -15 28 -1 22 -22 52 -36 52 -5 0 -3 -13 6 -30 8 -16 15 -36 15 -45 0 -20
-19 -20 -27 0 -9 26 -63 75 -63 59 0 -16 -47 13 -87 54 -13 13 -23 19 -23 15
0 -4 -5 0 -11 11 -9 14 -8 20 2 27 8 4 14 14 15 21 0 7 2 25 2 41 2 19 7 27
21 27 26 0 32 48 9 86 -10 16 -22 38 -27 49 -5 11 -24 34 -42 51 -19 17 -42
41 -51 54 -16 21 -20 22 -41 11 -17 -9 -23 -22 -24 -47 -1 -19 3 -34 8 -34 5
0 9 5 9 10 0 6 5 10 10 10 15 0 12 -27 -4 -33 -9 -3 -12 -15 -9 -31 4 -19 1
-26 -11 -26 -9 0 -20 -8 -23 -17 -11 -29 -56 -61 -96 -67 -46 -8 -133 28 -141
57 -5 21 50 84 70 79 6 -1 22 8 35 20 29 26 65 46 94 50 12 2 21 12 23 26 4
26 -6 29 -23 5 -11 -14 -14 -13 -31 15 -15 26 -25 32 -52 32 -25 0 -35 -5 -39
-20 -4 -15 -11 -18 -29 -14 -17 4 -24 2 -24 -9 0 -20 -27 -29 -34 -11 -9 23
-23 16 -36 -18 -7 -18 -12 -36 -12 -40 1 -3 -5 -12 -13 -18 -8 -7 -15 -21 -15
-32 0 -16 5 -19 25 -14 48 12 24 -13 -47 -50 -80 -40 -127 -48 -145 -24 -11
13 -14 12 -28 -7 -9 -13 -22 -23 -30 -23 -8 0 -17 -5 -21 -12 -4 -7 -3 -8 4
-4 8 5 12 -1 12 -14 0 -12 -4 -18 -10 -15 -16 10 2 -29 19 -42 9 -7 24 -10 34
-7 22 7 24 -31 1 -40 -8 -3 -12 -10 -9 -16 3 -5 -1 -10 -9 -10 -9 0 -16 -7
-16 -15 0 -9 -6 -18 -14 -21 -22 -8 -46 -78 -46 -132 0 -51 17 -123 28 -120
21 4 60 -24 72 -51 14 -35 14 -35 39 -19 11 7 16 19 13 30 -2 10 1 18 7 18 6
0 11 -7 11 -15 0 -8 5 -15 10 -15 6 0 10 15 10 33 1 29 2 30 12 12 6 -11 21
-29 33 -41 12 -11 24 -31 27 -45 3 -13 9 -32 13 -41 5 -12 3 -18 -6 -18 -17 0
-43 -55 -34 -70 9 -14 -8 -13 -24 3 -10 10 -12 8 -9 -8 2 -12 10 -19 21 -17 9
2 17 -2 17 -8 0 -5 -6 -10 -14 -10 -7 0 -16 -14 -20 -31 -9 -45 -8 -61 4 -54
5 3 10 2 10 -4 0 -6 -12 -8 -29 -5 -33 7 -81 -27 -81 -57 0 -10 -8 -22 -17
-28 -10 -5 -15 -13 -11 -16 4 -4 1 -14 -7 -22 -17 -16 -21 -93 -5 -93 6 0 10
-23 10 -50 0 -47 3 -54 48 -98 57 -56 63 -85 21 -104 -16 -7 -29 -15 -29 -18
0 -3 -14 -6 -32 -7 -17 -1 -34 -6 -37 -10 -3 -5 -19 -15 -36 -23 -16 -8 -33
-19 -37 -25 -4 -5 -12 -10 -18 -10 -6 0 -14 -4 -18 -10 -4 -5 -16 -15 -26 -21
-62 -33 -45 -34 1053 -34 l1081 0 38 23 c20 13 44 27 52 31 8 4 24 12 35 19
103 65 125 81 126 95 2 38 -4 78 -13 90 -6 6 -8 26 -4 43 3 17 1 39 -5 50 -7
15 -6 21 6 25 8 3 15 11 15 16 0 6 -7 7 -16 4 -12 -4 -15 -2 -10 9 3 9 0 15
-9 15 -8 0 -15 -8 -15 -17 0 -13 -3 -14 -12 -5 -9 9 -8 16 5 30 10 11 15 26
11 36 -4 11 -1 16 10 16 9 0 15 3 15 8 -4 22 2 42 11 37 6 -3 10 -1 10 4 0 16
-35 14 -49 -2 -6 -8 -9 -16 -6 -18 2 -3 -4 -5 -14 -5 -12 0 -18 7 -17 21 2 24
-14 65 -26 65 -4 0 -8 -4 -8 -10 0 -5 -7 -7 -16 -3 -8 3 -26 0 -40 -7 -13 -8
-27 -10 -31 -6 -13 13 -5 223 9 232 5 3 5 11 -1 18 -7 8 -6 21 4 40 8 15 12
32 9 38 -3 5 0 15 8 21 8 7 23 37 33 67 14 45 16 66 8 111 -8 45 -6 60 6 79 9
13 16 42 16 64 0 36 3 41 22 38 12 -2 24 2 28 8 10 16 28 12 22 -5 -10 -24 15
-30 33 -7 10 12 20 18 24 15 3 -4 6 -1 6 5 0 7 7 12 15 12 16 0 18 -12 37
-172 1 -10 7 -18 14 -18 16 0 44 34 44 54 0 9 4 14 10 11 5 -3 12 6 16 20 3
14 10 25 14 25 4 0 10 7 14 15 3 10 -1 14 -12 13 -63 -5 -65 16 -2 27 22 4 40
11 40 16 0 5 3 8 8 8 20 -3 32 3 32 16 0 12 -9 15 -40 11 -22 -3 -44 -8 -50
-11 -10 -6 -42 9 -75 36 -11 9 -29 20 -41 23 -16 5 -20 14 -20 39 1 17 5 38
10 45 4 7 5 26 1 42 -4 19 -3 30 4 30 6 0 11 8 11 18 0 10 5 23 10 28 6 6 7
25 4 43 l-7 34 -18 -24 c-10 -13 -19 -32 -19 -41 0 -10 -4 -18 -10 -18 -5 0
-10 -8 -10 -17 0 -10 -4 -23 -8 -30 -4 -6 -7 6 -7 28 0 26 4 39 13 39 8 0 12
6 9 13 -3 6 -8 20 -12 29 -5 12 -2 20 9 24 18 7 22 39 6 49 -8 5 -7 11 1 21
12 14 33 9 24 -6 -3 -4 2 -10 10 -14 16 -6 29 9 21 23 -3 5 1 14 9 21 8 7 15
17 15 22 0 5 6 15 13 22 14 14 20 0 47 -110 l13 -52 -41 -39 c-23 -22 -42 -47
-42 -56 0 -10 -6 -17 -12 -17 -7 0 -5 -5 5 -11 29 -17 98 0 142 36 42 33 83
50 149 60 44 7 86 46 86 81 0 13 5 24 12 24 9 0 9 3 0 12 -7 7 -12 17 -12 22
0 6 5 4 11 -4 9 -12 9 -11 3 5 -4 11 -10 43 -14 70 -4 28 -8 44 -9 38 0 -7 -6
-13 -12 -13 -7 0 -9 10 -5 25 6 23 4 25 -26 25 -18 1 -43 6 -55 13 -19 11 -20
14 -7 31 7 11 17 17 20 13 4 -3 14 4 24 15 12 15 29 22 54 22 27 0 36 4 36 17
0 13 7 17 27 15 30 -3 31 -7 41 -126 4 -47 11 -84 17 -83 5 1 15 26 21 54 7
29 18 58 26 63 12 10 38 89 38 116 0 6 -7 10 -15 10 -18 0 -19 14 -3 39 17 27
-3 48 -55 59 -29 6 -52 4 -74 -5 -18 -7 -33 -10 -33 -6 0 5 -4 2 -8 -5 -5 -8
-31 -13 -65 -13 -42 -1 -57 -5 -57 -15 0 -8 -4 -14 -10 -14 -5 0 -10 7 -10 15
0 8 4 15 8 15 5 0 24 14 43 31 36 33 133 82 185 93 23 5 31 12 30 27 0 11 -7
23 -13 27 -7 5 -16 24 -19 42 l-7 35 38 -40 c37 -39 37 -39 33 -12 -6 30 3 34
26 11 18 -17 22 -54 6 -54 -5 0 -10 -11 -10 -25 0 -18 4 -23 15 -19 16 7 20
-6 6 -22 -10 -11 6 -74 19 -74 6 0 8 11 4 24 -3 14 -1 27 7 31 9 6 11 -4 6
-43 -3 -29 -2 -52 2 -52 19 0 20 42 1 115 -1 6 -2 12 -1 15 7 21 5 161 -2 183
-12 37 0 48 13 11 5 -16 15 -37 20 -46 6 -10 10 -31 10 -47 0 -35 26 -49 34
-18 3 12 6 35 6 51 0 24 -2 27 -15 16 -12 -10 -15 -10 -15 0 0 6 8 14 18 17
16 4 18 16 16 106 -1 67 3 111 12 127 7 14 16 42 19 63 3 21 10 35 15 32 11
-7 3 117 -11 159 -5 16 -6 51 -3 76 10 74 -12 160 -49 193 -60 52 -67 61 -67
82 0 11 -7 31 -16 44 l-17 23 28 -18 c22 -14 27 -15 23 -4 -2 8 -20 25 -39 37
-19 12 -45 32 -57 45 -20 19 -21 24 -8 26 9 2 13 8 9 14 -4 8 0 9 10 5 10 -4
24 -10 34 -14 12 -5 10 1 -7 25 -15 20 -26 28 -31 21 -9 -16 -21 5 -13 25 3 9
1 16 -5 16 -6 0 -11 6 -11 14 0 7 -11 21 -25 30 -14 9 -23 21 -20 25 7 13 -72
81 -95 81 -11 0 -20 5 -20 11 0 7 -8 18 -17 26 -10 7 -13 13 -8 12 23 -3 23 2
1 26 -13 13 -32 26 -42 28 -10 2 -27 7 -36 10 -10 4 -25 9 -34 12 -10 3 -13
12 -9 24 10 34 -4 51 -45 51 -22 0 -42 5 -45 10 -3 6 -24 10 -46 10 -22 0 -38
-4 -34 -9 9 -16 -9 -20 -29 -6 -10 8 -16 21 -13 29 6 15 -18 31 -40 27 -7 -1
-13 3 -13 9 0 5 -11 10 -25 10 -14 0 -30 9 -37 20 -7 11 -16 20 -20 20 -5 0
-8 -9 -8 -20 0 -11 5 -20 10 -20 6 0 10 -4 10 -10 0 -6 -9 -6 -25 0 -25 10
-36 -3 -12 -14 6 -4 -4 -4 -23 -1 -19 3 -44 15 -55 28 -25 28 -59 47 -83 47
-21 0 -62 51 -62 76 0 13 -3 14 -15 4 -15 -12 -31 -11 -94 9 -18 6 -31 8 -27
4 3 -3 -4 -13 -15 -21 -18 -12 -23 -13 -30 -1 -5 8 -9 9 -9 3 0 -12 -58 -44
-79 -44 -6 0 -11 9 -11 20 0 20 -6 22 -55 22 -46 0 -50 -2 -82 -31 -36 -33
-55 -18 -22 17 10 12 19 23 19 26 0 10 -44 -4 -52 -16 -6 -10 -10 -10 -18 2
-9 13 -11 13 -21 0 -8 -11 -12 -12 -16 -2 -2 6 -11 12 -19 12 -19 0 -18 39 3
62 9 10 12 18 6 18 -5 0 -17 -8 -26 -18z m-60 -94 c-3 -7 -5 -2 -5 12 0 14 2
19 5 13 2 -7 2 -19 0 -25z m-177 12 c0 -5 -2 -10 -4 -10 -3 0 -8 5 -11 10 -3
6 -1 10 4 10 6 0 11 -4 11 -10z m497 -32 c-3 -8 -6 -5 -6 6 -1 11 2 17 5 13 3
-3 4 -12 1 -19z m299 9 c15 6 18 -14 6 -34 -6 -9 -14 -3 -26 20 -11 17 -13 27
-6 20 7 -6 19 -9 26 -6z m-1159 -123 c-3 -3 -12 -4 -19 -1 -8 3 -5 6 6 6 11 1
17 -2 13 -5z m1527 -10 c5 -12 2 -15 -10 -10 -8 3 -20 6 -25 6 -5 0 -9 5 -9
10 0 16 37 11 44 -6z m-1684 -45 c0 -11 -4 -18 -10 -14 -5 3 -7 12 -3 20 7 21
13 19 13 -6z m1620 -35 c0 -2 -9 0 -20 6 -11 6 -20 13 -20 16 0 2 9 0 20 -6
11 -6 20 -13 20 -16z m-1274 -261 c-2 -16 5 -38 15 -52 22 -27 17 -41 -14 -41
-15 0 -18 3 -9 9 10 6 10 10 -3 21 -15 12 -21 71 -8 83 14 14 22 6 19 -20z
m-66 8 c0 -6 -4 -13 -10 -16 -5 -3 -10 1 -10 9 0 9 5 16 10 16 6 0 10 -4 10
-9z m145 -81 c3 -5 1 -10 -4 -10 -6 0 -11 5 -11 10 0 6 2 10 4 10 3 0 8 -4 11
-10z m-5 -46 c0 -12 -2 -12 -14 -2 -8 7 -12 16 -9 21 7 11 23 -2 23 -19z
m1805 6 c3 -5 1 -10 -4 -10 -6 0 -11 5 -11 10 0 6 2 10 4 10 3 0 8 -4 11 -10z
m155 -290 c4 0 10 -9 13 -21 4 -16 2 -19 -10 -15 -9 4 -22 1 -29 -5 -11 -9
-14 -5 -14 21 0 25 3 31 16 26 9 -3 19 -6 24 -6z m-30 -118 c0 -21 -2 -24 -10
-12 -13 20 -13 53 0 45 6 -3 10 -18 10 -33z m68 -167 c-3 -3 -9 2 -12 12 -6
14 -5 15 5 6 7 -7 10 -15 7 -18z m-37 -70 c-9 -52 -20 -18 -13 40 4 31 6 36
12 20 4 -11 5 -38 1 -60z m-143 -184 c3 -8 -1 -12 -9 -9 -7 2 -15 10 -17 17
-3 8 1 12 9 9 7 -2 15 -10 17 -17z m12 -51 c0 -5 -5 -10 -11 -10 -5 0 -7 5 -4
10 3 6 8 10 11 10 2 0 4 -4 4 -10z m32 -61 c-12 -9 -20 -18 -19 -20 1 -3 -3 2
-10 10 -13 15 -2 33 27 43 24 8 25 -14 2 -33z m91 -39 c-3 -11 -9 -20 -15 -20
-5 0 -4 9 2 20 6 11 12 20 14 20 2 0 2 -9 -1 -20z m-1353 0 c0 -5 -4 -10 -10
-10 -5 0 -10 5 -10 10 0 6 5 10 10 10 6 0 10 -4 10 -10z m1077 -50 c0 -28 -3
-50 -8 -50 -5 0 -9 23 -9 50 0 65 15 65 17 0z m109 23 c21 -28 16 -39 -6 -15
-11 12 -20 24 -20 27 0 11 13 4 26 -12z m78 -9 c3 -8 2 -12 -4 -9 -6 3 -10 10
-10 16 0 14 7 11 14 -7z m-167 -26 c-3 -8 -6 -5 -6 6 -1 11 2 17 5 13 3 -3 4
-12 1 -19z m-794 -344 c-4 -10 -9 -12 -15 -6 -12 12 -1 35 12 27 5 -3 6 -13 3
-21z m-26 -126 c-3 -8 -6 -5 -6 6 -1 11 2 17 5 13 3 -3 4 -12 1 -19z m93 -73
c0 -9 -9 -15 -22 -15 -22 1 -23 1 -4 15 25 19 26 19 26 0z m-85 -64 c3 -5 1
-12 -5 -16 -5 -3 -10 1 -10 9 0 18 6 21 15 7z m-60 -41 c3 -5 -1 -10 -9 -10
-9 0 -16 5 -16 10 0 6 4 10 9 10 6 0 13 -4 16 -10z m85 0 c0 -5 -7 -10 -15
-10 -8 0 -15 5 -15 10 0 6 7 10 15 10 8 0 15 -4 15 -10z m246 -16 c-21 -20
-28 -17 -14 5 7 11 16 17 20 15 5 -3 2 -12 -6 -20z m-496 -10 c0 -8 -4 -12
-10 -9 -5 3 -10 10 -10 16 0 5 5 9 10 9 6 0 10 -7 10 -16z m294 1 c-4 -8 -11
-15 -16 -15 -6 0 -5 6 2 15 7 8 14 15 16 15 2 0 1 -7 -2 -15z m638 -8 c8 -15
4 -25 -18 -48 -15 -16 -33 -29 -40 -29 -16 0 -30 80 -15 89 21 13 62 6 73 -12z
m-382 -7 c0 -5 -4 -12 -10 -15 -5 -3 -10 -15 -10 -26 0 -29 -44 -25 -64 6 -19
28 -6 34 19 9 15 -16 18 -16 33 1 16 17 16 17 0 12 -20 -7 -24 3 -7 20 12 12
39 7 39 -7z m-410 6 c0 -3 -4 -8 -10 -11 -5 -3 -10 -1 -10 4 0 6 5 11 10 11 6
0 10 -2 10 -4z m120 -22 c0 -14 -3 -14 -15 -4 -8 7 -15 14 -15 16 0 2 7 4 15
4 8 0 15 -7 15 -16z m180 -49 c-7 -13 -17 -22 -21 -19 -5 3 -1 16 7 30 21 31
32 23 14 -11z m-220 5 c0 -5 -2 -10 -4 -10 -3 0 -8 5 -11 10 -3 6 -1 10 4 10
6 0 11 -4 11 -10z m-315 -20 c3 -5 1 -10 -4 -10 -6 0 -11 5 -11 10 0 6 2 10 4
10 3 0 8 -4 11 -10z m470 -30 c3 -5 1 -10 -4 -10 -6 0 -11 5 -11 10 0 6 2 10
4 10 3 0 8 -4 11 -10z m-545 -40 c0 -5 -7 -7 -15 -4 -8 4 -15 8 -15 10 0 2 7
4 15 4 8 0 15 -4 15 -10z m448 -7 c-5 -25 -28 -28 -28 -4 0 12 6 21 16 21 9 0
14 -7 12 -17z m232 -12 c0 -11 -5 -23 -10 -26 -6 -4 -8 -11 -5 -16 4 -5 2 -9
-4 -9 -15 0 -18 22 -7 47 13 28 26 30 26 4z m-60 -6 c0 -8 -4 -15 -10 -15 -5
0 -7 7 -4 15 4 8 8 15 10 15 2 0 4 -7 4 -15z m-160 -20 c0 -8 -4 -15 -10 -15
-5 0 -7 7 -4 15 4 8 8 15 10 15 2 0 4 -7 4 -15z m180 -59 c0 -3 -4 -8 -10 -11
-5 -3 -10 -1 -10 4 0 6 5 11 10 11 6 0 10 -2 10 -4z m-2083 -91 c-7 -13 -14
-20 -15 -14 -5 14 6 39 17 39 5 0 4 -11 -2 -25z m2023 -39 c0 -3 -4 -8 -10
-11 -5 -3 -10 -1 -10 4 0 6 5 11 10 11 6 0 10 -2 10 -4z m250 -36 c0 -5 -4
-10 -10 -10 -5 0 -10 5 -10 10 0 6 5 10 10 10 6 0 10 -4 10 -10z m-1013 -142
c-3 -8 -6 -5 -6 6 -1 11 2 17 5 13 3 -3 4 -12 1 -19z m332 -38 c0 -10 -3 -8
-9 5 -12 27 -12 43 0 25 5 -8 9 -22 9 -30z m31 10 c0 -5 -4 -10 -10 -10 -5 0
-10 5 -10 10 0 6 5 10 10 10 6 0 10 -4 10 -10z m-380 -101 c0 -5 4 -8 8 -5 5
3 8 -11 7 -31 -2 -21 -8 -39 -15 -41 -9 -3 -11 3 -6 21 3 14 2 29 -4 32 -13 8
-13 35 0 35 6 0 10 -5 10 -11z m215 -8 c3 -5 1 -12 -5 -16 -5 -3 -10 1 -10 9
0 18 6 21 15 7z m-28 -43 c-3 -8 -6 -5 -6 6 -1 11 2 17 5 13 3 -3 4 -12 1 -19z
m-1143 -48 c8 0 17 6 19 13 3 7 6 5 6 -6 1 -15 7 -17 35 -12 20 4 36 2 40 -4
4 -6 2 -11 -3 -11 -6 0 -11 -4 -11 -9 0 -5 11 -8 25 -6 16 1 25 -3 25 -11 0
-8 -6 -11 -17 -7 -11 4 -14 3 -9 -5 14 -24 -5 -32 -36 -16 -25 13 -32 14 -39
2 -7 -10 -11 -10 -25 4 -14 14 -15 20 -4 32 10 13 10 16 0 16 -22 0 -49 31
-43 48 5 12 8 11 14 -6 5 -12 15 -22 23 -22z m310 -6 c8 -22 8 -24 -7 -24 -7
0 -13 9 -14 20 -2 24 12 27 21 4z m801 -16 c-6 -33 -6 -33 12 -12 10 11 24 19
31 16 8 -2 1 -13 -18 -27 -19 -14 -27 -26 -20 -30 14 -9 3 -25 -14 -19 -14 5
-15 56 -1 87 12 27 17 20 10 -15z m-894 12 c18 6 35 10 37 10 1 0 -6 -10 -18
-22 -11 -12 -20 -32 -20 -45 0 -14 -4 -21 -10 -18 -5 3 -19 1 -31 -5 -32 -18
-43 0 -29 49 9 33 14 40 24 32 8 -7 24 -7 47 -1z m-338 -20 c3 -11 1 -20 -4
-20 -5 0 -9 9 -9 20 0 11 2 20 4 20 2 0 6 -9 9 -20z m1272 -39 c3 -5 1 -12 -5
-16 -5 -3 -10 1 -10 9 0 18 6 21 15 7z m-695 -35 c0 -2 -7 -9 -15 -16 -12 -10
-15 -10 -15 4 0 9 7 16 15 16 8 0 15 -2 15 -4z m677 -28 c-3 -8 -6 -5 -6 6 -1
11 2 17 5 13 3 -3 4 -12 1 -19z m-687 -44 c0 -2 -7 -4 -15 -4 -8 0 -15 4 -15
10 0 5 7 7 15 4 8 -4 15 -8 15 -10z m27 -40 c-3 -3 -12 -4 -19 -1 -8 3 -5 6 6
6 11 1 17 -2 13 -5z m26 -9 c-3 -9 -8 -14 -10 -11 -3 3 -2 9 2 15 9 16 15 13
8 -4z m1274 -142 c-3 -10 -5 -2 -5 17 0 19 2 27 5 18 2 -10 2 -26 0 -35z
m-1937 33 c0 -2 -7 -9 -15 -16 -13 -11 -14 -10 -9 4 5 14 24 23 24 12z"/>
<path d="M2750 4089 c0 -5 5 -7 10 -4 6 3 10 8 10 11 0 2 -4 4 -10 4 -5 0 -10
-5 -10 -11z"/>
<path d="M2995 4070 c-18 -19 -18 -20 3 -20 24 0 38 18 25 31 -6 6 -16 2 -28
-11z"/>
<path d="M3080 4050 c0 -5 5 -10 11 -10 5 0 7 5 4 10 -3 6 -8 10 -11 10 -2 0
-4 -4 -4 -10z"/>
<path d="M3160 4000 c0 -15 42 -18 78 -6 l37 13 -57 0 c-32 0 -58 -3 -58 -7z"/>
<path d="M3330 3989 c0 -5 7 -9 15 -9 8 0 15 -7 15 -15 0 -8 4 -15 9 -15 18 0
-1 46 -20 47 -10 1 -19 -2 -19 -8z"/>
<path d="M3220 3969 l-25 -20 40 7 c22 4 49 10 60 15 19 7 19 8 -2 8 -12 1
-27 3 -35 6 -7 2 -24 -4 -38 -16z"/>
<path d="M1686 3873 c-3 -10 -9 -24 -12 -31 -5 -11 -2 -12 14 -3 12 6 20 20
19 31 -2 25 -13 26 -21 3z"/>
<path d="M1750 3500 c0 -5 5 -10 11 -10 5 0 7 5 4 10 -3 6 -8 10 -11 10 -2 0
-4 -4 -4 -10z"/>
<path d="M4042 3371 c-11 -7 -11 -9 2 -14 10 -4 16 -1 16 8 0 17 -1 17 -18 6z"/>
<path d="M4100 3262 c0 -5 9 -17 20 -27 22 -20 26 -9 6 18 -14 18 -26 22 -26
9z"/>
<path d="M2705 3210 c3 -5 8 -10 11 -10 2 0 4 5 4 10 0 6 -5 10 -11 10 -5 0
-7 -4 -4 -10z"/>
<path d="M1250 2989 c0 -5 5 -7 10 -4 6 3 10 8 10 11 0 2 -4 4 -10 4 -5 0 -10
-5 -10 -11z"/>
<path d="M4194 2615 c-3 -8 -3 -19 1 -25 11 -18 25 -11 25 15 0 27 -17 34 -26
10z"/>
<path d="M4201 2533 c0 -13 -5 -23 -10 -23 -11 0 -13 -151 -2 -169 19 -29 34
67 24 144 -6 39 -11 60 -12 48z"/>
<path d="M2610 2500 c0 -5 5 -10 10 -10 6 0 10 5 10 10 0 6 -4 10 -10 10 -5 0
-10 -4 -10 -10z"/>
<path d="M1104 2428 c-3 -5 -9 -6 -14 -3 -25 15 -16 -23 23 -92 59 -106 60
-111 37 -123 -27 -14 -25 -28 5 -42 14 -6 24 -16 22 -22 -9 -22 12 -53 38 -58
14 -3 43 1 65 8 51 18 130 16 130 -2 0 -8 -5 -14 -11 -14 -6 0 -25 -10 -42
-22 -23 -17 -45 -22 -87 -22 -30 0 -61 2 -69 4 -26 9 -22 -17 6 -36 19 -12 45
-18 81 -17 57 2 122 19 122 34 0 5 7 9 15 9 8 0 15 5 15 11 0 6 13 29 28 52
21 31 29 56 31 95 1 30 -2 59 -7 65 -5 7 -15 28 -21 49 -8 24 -19 38 -36 42
-13 3 -38 20 -55 37 -22 22 -42 32 -68 34 -20 2 -50 8 -66 14 -33 13 -134 12
-142 -1z m167 -186 c-28 -4 -40 6 -21 18 9 6 20 4 29 -3 12 -10 11 -13 -8 -15z
m-56 8 c3 -5 1 -10 -4 -10 -6 0 -11 5 -11 10 0 6 2 10 4 10 3 0 8 -4 11 -10z"/>
<path d="M2695 2430 c4 -6 11 -8 16 -5 14 9 11 15 -7 15 -8 0 -12 -5 -9 -10z"/>
<path d="M2620 2401 c0 -6 5 -13 11 -16 6 -5 4 -11 -7 -19 -12 -9 -15 -20 -11
-39 6 -23 9 -24 31 -14 20 10 22 15 15 36 -5 13 -7 26 -5 29 5 5 -19 32 -28
32 -3 0 -6 -4 -6 -9z"/>
<path d="M1711 2360 c-13 -11 -32 -20 -43 -20 -11 0 -22 -8 -25 -20 -3 -11 -9
-20 -14 -20 -5 0 -9 -7 -9 -15 0 -8 -5 -15 -12 -15 -6 0 -1 -11 12 -25 24 -26
36 -114 17 -126 -6 -4 -7 -15 -2 -25 4 -11 7 -39 5 -63 -2 -42 -1 -43 24 -37
25 6 34 -3 19 -18 -4 -3 -8 -16 -10 -27 -3 -21 0 -19 47 23 11 10 29 15 44 12
20 -3 24 -1 20 11 -9 22 20 19 41 -5 14 -15 15 -20 4 -20 -8 0 4 -9 26 -19 24
-11 46 -15 55 -10 10 4 25 0 40 -12 31 -23 40 -24 40 -1 0 16 13 18 145 19 80
0 148 -3 151 -8 3 -5 -2 -17 -11 -26 -14 -14 -18 -14 -26 -2 -7 11 -9 11 -9
-3 0 -12 -8 -18 -24 -18 -14 0 -28 -5 -32 -11 -4 -7 -29 -10 -65 -7 -33 2 -54
1 -47 -4 18 -11 196 -10 202 1 4 5 24 12 46 16 24 4 40 12 40 21 0 22 34 34
95 34 52 0 56 2 50 20 -5 14 -2 20 9 20 19 0 22 19 4 21 -7 1 1 5 17 9 25 6
26 8 7 9 -17 1 -22 6 -20 19 3 13 13 17 41 16 32 -1 35 1 25 13 -10 12 -9 18
7 29 10 8 14 14 7 14 -6 0 -9 7 -5 16 3 9 0 20 -8 24 -7 5 -10 13 -5 17 5 4
11 2 13 -4 5 -13 33 -18 33 -7 0 4 -7 12 -16 19 -9 6 -16 24 -16 38 0 16 -6
27 -14 27 -8 0 -14 4 -14 8 0 5 14 8 30 7 17 -1 33 2 36 7 3 4 22 -9 43 -29
21 -21 33 -41 28 -44 -14 -9 -1 -39 17 -39 15 0 30 41 18 50 -14 10 -35 60
-29 67 4 3 7 1 7 -5 0 -16 25 -15 38 1 14 16 5 54 -15 61 -8 3 -22 2 -31 -4
-10 -5 -12 -10 -4 -10 6 0 12 -5 12 -11 0 -7 -10 -9 -25 -7 -14 3 -25 2 -25
-3 0 -4 8 -9 17 -11 9 -2 -14 -4 -50 -4 l-67 -2 0 35 c0 19 -4 32 -9 29 -5 -3
-7 -16 -3 -28 3 -14 2 -19 -6 -14 -7 4 -12 1 -12 -8 0 -9 5 -16 10 -16 6 0 10
-7 10 -15 0 -17 -35 -21 -45 -5 -4 7 -11 8 -18 1 -14 -11 -56 -7 -83 7 -17 8
-96 13 -236 14 -36 0 -48 4 -48 15 0 11 -7 14 -21 10 -14 -4 -33 3 -53 17 -21
16 -51 25 -95 30 -35 3 -69 10 -75 15 -6 4 -36 9 -66 10 -30 1 -62 3 -70 6 -8
2 -26 -5 -39 -15z m394 -158 c-3 -3 -11 0 -18 7 -9 10 -8 11 6 5 10 -3 15 -9
12 -12z m65 -6 c0 -2 3 -11 6 -20 8 -20 -14 -21 -52 -4 l-27 13 24 6 c30 9 49
10 49 5z m-140 -36 c0 -5 -4 -10 -10 -10 -5 0 -10 5 -10 10 0 6 5 10 10 10 6
0 10 -4 10 -10z m93 -33 c33 -12 36 -15 23 -27 -10 -7 -26 -10 -43 -6 -16 4
-40 10 -55 13 -29 5 -38 27 -15 37 15 6 41 2 90 -17z m193 -224 c-10 -10 -19
5 -10 18 6 11 8 11 12 0 2 -7 1 -15 -2 -18z"/>
<path d="M2703 2350 c-29 -12 -29 -17 -1 -15 12 1 24 7 26 13 4 14 4 14 -25 2z"/>
<path d="M2925 2330 c-3 -5 4 -14 15 -20 16 -8 20 -8 20 4 0 16 -27 29 -35 16z"/>
<path d="M3975 2278 c-4 -10 -4 -26 0 -35 8 -17 8 -17 12 0 3 9 3 25 0 35 -4
16 -4 16 -12 0z"/>
<path d="M2615 2230 c4 -6 11 -8 16 -5 14 9 11 15 -7 15 -8 0 -12 -5 -9 -10z"/>
<path d="M2640 2209 c0 -5 -4 -7 -10 -4 -15 9 -12 -7 6 -30 l16 -20 -3 20 c-2
11 0 26 4 33 5 7 4 12 -2 12 -6 0 -11 -5 -11 -11z"/>
<path d="M3020 2200 c0 -5 5 -10 10 -10 6 0 10 5 10 10 0 6 -4 10 -10 10 -5 0
-10 -4 -10 -10z"/>
<path d="M2975 1980 c3 -5 8 -10 11 -10 2 0 4 5 4 10 0 6 -5 10 -11 10 -5 0
-7 -4 -4 -10z"/>
<path d="M3865 1979 c-10 -15 3 -25 16 -12 7 7 7 13 1 17 -6 3 -14 1 -17 -5z"/>
<path d="M2000 1910 c0 -5 5 -10 11 -10 5 0 7 5 4 10 -3 6 -8 10 -11 10 -2 0
-4 -4 -4 -10z"/>
<path d="M2030 1890 c0 -5 5 -10 11 -10 5 0 7 5 4 10 -3 6 -8 10 -11 10 -2 0
-4 -4 -4 -10z"/>
<path d="M2952 1856 c7 -8 15 -12 17 -11 5 6 -10 25 -20 25 -5 0 -4 -6 3 -14z"/>
<path d="M2910 1830 c0 -5 9 -10 21 -10 11 0 17 5 14 10 -3 6 -13 10 -21 10
-8 0 -14 -4 -14 -10z"/>
<path d="M3921 1694 c0 -11 3 -14 6 -6 3 7 2 16 -1 19 -3 4 -6 -2 -5 -13z"/>
<path d="M3451 1644 c0 -11 3 -14 6 -6 3 7 2 16 -1 19 -3 4 -6 -2 -5 -13z"/>
<path d="M3912 1640 c0 -14 2 -19 5 -12 2 6 2 18 0 25 -3 6 -5 1 -5 -13z"/>
<path d="M3390 1640 c0 -5 5 -10 10 -10 6 0 10 5 10 10 0 6 -4 10 -10 10 -5 0
-10 -4 -10 -10z"/>
<path d="M3885 1595 c-5 -2 -22 -6 -37 -9 -15 -3 -39 -17 -54 -31 -15 -14 -33
-25 -41 -25 -23 0 -9 -25 17 -28 39 -6 90 29 121 81 5 9 8 17 7 16 -2 0 -7 -2
-13 -4z"/>
<path d="M3770 1357 c-13 -7 -37 -30 -52 -52 -34 -49 -73 -192 -58 -211 7 -8
8 -13 1 -16 -6 -1 -13 -18 -17 -35 -8 -42 12 -45 21 -3 4 17 11 30 16 30 6 0
8 4 4 9 -6 11 15 61 27 61 4 0 8 -7 8 -16 0 -17 22 -14 28 4 2 7 -4 12 -12 12
-13 0 -15 6 -10 28 4 15 13 34 20 43 8 8 14 24 14 35 0 11 6 26 13 33 12 12
14 16 16 51 0 11 8 20 16 20 8 0 15 5 15 10 0 13 -20 12 -50 -3z"/>
<path d="M3805 1300 c-4 -12 -5 -24 -2 -27 3 -2 8 5 12 17 4 12 5 24 2 27 -3
2 -8 -5 -12 -17z"/>
<path d="M2226 1244 c-4 -10 -1 -14 6 -12 15 5 23 28 10 28 -5 0 -13 -7 -16
-16z"/>
<path d="M3752 1180 c0 -14 2 -19 5 -12 2 6 2 18 0 25 -3 6 -5 1 -5 -13z"/>
<path d="M2350 1055 c0 -8 7 -15 15 -15 8 0 15 7 15 15 0 8 -7 15 -15 15 -8 0
-15 -7 -15 -15z"/>
<path d="M3677 1003 c-4 -3 -7 -11 -7 -17 0 -6 5 -5 12 2 6 6 9 14 7 17 -3 3
-9 2 -12 -2z"/>
<path d="M3627 980 c-10 -37 -8 -70 3 -70 16 0 20 21 12 60 -8 33 -8 34 -15
10z"/>
<path d="M1225 890 c-8 -13 17 -50 33 -50 8 0 11 6 8 13 -3 6 -9 20 -12 30 -7
19 -20 22 -29 7z"/>
<path d="M1292 881 c2 -7 7 -12 11 -12 12 1 9 15 -3 20 -7 2 -11 -2 -8 -8z"/>
<path d="M2335 860 c4 -6 11 -8 16 -5 14 9 11 15 -7 15 -8 0 -12 -5 -9 -10z"/>
<path d="M1775 740 c3 -5 10 -10 16 -10 5 0 9 5 9 10 0 6 -7 10 -16 10 -8 0
-12 -4 -9 -10z"/>
<path d="M1770 713 c8 -3 24 -10 35 -15 20 -9 20 -9 1 6 -11 9 -27 16 -35 15
-14 0 -14 -1 -1 -6z"/>
<path d="M1782 649 c2 -6 8 -10 13 -10 5 0 11 4 13 10 2 6 -4 11 -13 11 -9 0
-15 -5 -13 -11z"/>
<path d="M1930 620 c0 -5 5 -10 10 -10 6 0 10 5 10 10 0 6 -4 10 -10 10 -5 0
-10 -4 -10 -10z"/>
<path d="M3275 620 c3 -5 8 -10 11 -10 2 0 4 5 4 10 0 6 -5 10 -11 10 -5 0 -7
-4 -4 -10z"/>
<path d="M4025 420 c-3 -5 -21 -10 -38 -10 -18 0 -43 -9 -57 -20 -14 -11 -32
-20 -41 -20 -9 0 -22 -7 -29 -15 -7 -8 -18 -15 -24 -15 -6 0 -29 -14 -50 -30
-22 -17 -47 -30 -57 -30 -10 0 -19 -3 -21 -7 -1 -5 -23 -18 -48 -31 -90 -45
-273 -162 -350 -222 l-25 -20 218 0 c236 0 266 5 304 54 12 14 26 26 32 26 10
0 15 14 12 32 0 5 11 8 26 8 26 0 26 1 7 16 -18 15 -18 15 4 9 13 -4 22 -2 22
4 0 6 -6 11 -12 11 -9 0 -9 3 1 9 8 5 21 7 29 3 9 -3 13 -1 9 4 -3 6 3 23 13
39 15 23 28 30 57 31 101 6 150 14 177 27 16 9 35 13 44 10 11 -5 13 -2 7 8
-6 11 -5 12 6 2 24 -23 29 -14 29 46 0 69 -22 94 -58 68 -8 -7 -19 -4 -32 8
-19 17 -20 17 -20 0 0 -13 -5 -15 -17 -9 -10 4 -31 7 -47 6 -16 -1 -37 3 -47
8 -12 7 -20 7 -24 0z m-97 -193 c2 -9 -3 -17 -10 -17 -8 0 -14 9 -15 21 -2 24
20 20 25 -4z m-38 -11 c0 -3 -4 -8 -10 -11 -5 -3 -10 -1 -10 4 0 6 5 11 10 11
6 0 10 -2 10 -4z m10 -27 c0 -12 -39 -17 -43 -5 -3 6 6 11 19 11 13 0 24 -3
24 -6z"/>
<path d="M0 364 c0 -8 5 -12 10 -9 6 3 10 10 10 16 0 5 -4 9 -10 9 -5 0 -10
-7 -10 -16z"/>
<path d="M4240 231 c0 -5 -10 -7 -22 -3 -17 4 -20 2 -15 -12 5 -13 2 -15 -18
-10 -17 4 -29 0 -42 -15 -18 -22 -53 -29 -53 -10 0 5 4 8 9 4 5 -3 12 -1 15 4
7 10 -33 23 -47 14 -5 -3 -3 -10 4 -15 9 -5 4 -6 -13 -2 -18 4 -28 2 -28 -5 0
-6 -9 -11 -20 -11 -12 0 -17 -5 -14 -14 4 -10 -2 -12 -20 -9 -19 4 -26 1 -26
-10 0 -9 -21 -26 -49 -40 -45 -21 -121 -79 -121 -92 0 -3 110 -5 245 -5 l245
0 0 65 c0 36 -6 74 -12 85 -10 16 -10 24 0 40 16 27 15 50 -3 50 -8 0 -15 -4
-15 -9z"/>
<path d="M4261 174 c0 -11 3 -14 6 -6 3 7 2 16 -1 19 -3 4 -6 -2 -5 -13z"/>
<path d="M3280 65 c-25 -13 -63 -32 -85 -42 l-40 -17 43 -4 c44 -3 73 12 136
70 29 26 1 23 -54 -7z"/>
</g>
</svg>
